{"asset":{"version":"2.0","generator":"Blockbench 4.9.3 glTF exporter"},"scenes":[{"nodes":[6],"name":"blockbench_export"}],"scene":0,"nodes":[{"name":"wallnutbody","mesh":0},{"name":"wallnut1","mesh":1},{"name":"wallnut2","mesh":2},{"name":"mouth","mesh":3},{"name":"mouth2","mesh":4},{"name":"mouth1","mesh":5},{"children":[0,1,2,3,4,5]}],"bufferViews":[{"buffer":0,"byteOffset":0,"byteLength":288,"target":34962,"byteStride":12},{"buffer":0,"byteOffset":288,"byteLength":288,"target":34962,"byteStride":12},{"buffer":0,"byteOffset":576,"byteLength":192,"target":34962,"byteStride":8},{"buffer":0,"byteOffset":768,"byteLength":72,"target":34963},{"buffer":0,"byteOffset":840,"byteLength":48,"target":34962,"byteStride":12},{"buffer":0,"byteOffset":888,"byteLength":48,"target":34962,"byteStride":12},{"buffer":0,"byteOffset":936,"byteLength":32,"target":34962,"byteStride":8},{"buffer":0,"byteOffset":968,"byteLength":12,"target":34963},{"buffer":0,"byteOffset":980,"byteLength":96,"target":34962,"byteStride":12},{"buffer":0,"byteOffset":1076,"byteLength":96,"target":34962,"byteStride":12},{"buffer":0,"byteOffset":1172,"byteLength":64,"target":34962,"byteStride":8},{"buffer":0,"byteOffset":1236,"byteLength":24,"target":34963},{"buffer":0,"byteOffset":1260,"byteLength":48,"target":34962,"byteStride":12},{"buffer":0,"byteOffset":1308,"byteLength":48,"target":34962,"byteStride":12},{"buffer":0,"byteOffset":1356,"byteLength":32,"target":34962,"byteStride":8},{"buffer":0,"byteOffset":1388,"byteLength":12,"target":34963},{"buffer":0,"byteOffset":1400,"byteLength":48,"target":34962,"byteStride":12},{"buffer":0,"byteOffset":1448,"byteLength":48,"target":34962,"byteStride":12},{"buffer":0,"byteOffset":1496,"byteLength":32,"target":34962,"byteStride":8},{"buffer":0,"byteOffset":1528,"byteLength":12,"target":34963},{"buffer":0,"byteOffset":1540,"byteLength":48,"target":34962,"byteStride":12},{"buffer":0,"byteOffset":1588,"byteLength":48,"target":34962,"byteStride":12},{"buffer":0,"byteOffset":1636,"byteLength":32,"target":34962,"byteStride":8},{"buffer":0,"byteOffset":1668,"byteLength":12,"target":34963}],"buffers":[{"byteLength":1680,"uri":"data:application/octet-stream;base64,"}],"accessors":[{"bufferView":0,"componentType":5126,"count":24,"max":[0.25,0.625,0],"min":[-0.25,0,0],"type":"VEC3"},{"bufferView":1,"componentType":5126,"count":24,"max":[0,0,-1],"min":[0,0,-1],"type":"VEC3"},{"bufferView":2,"componentType":5126,"count":24,"max":[0.5,0.625],"min":[0,0],"type":"VEC2"},{"bufferView":3,"componentType":5123,"count":36,"max":[23],"min":[0],"type":"SCALAR"},{"bufferView":4,"componentType":5126,"count":4,"max":[-0.09375,0.625,0],"min":[-0.25,0.53125,0],"type":"VEC3"},{"bufferView":5,"componentType":5126,"count":4,"max":[0,0,-1],"min":[0,0,-1],"type":"VEC3"},{"bufferView":6,"componentType":5126,"count":4,"max":[0.375,0.25],"min":[0,0],"type":"VEC2"},{"bufferView":7,"componentType":5123,"count":6,"max":[3],"min":[0],"type":"SCALAR"},{"bufferView":8,"componentType":5126,"count":8,"max":[0,0.625,0],"min":[-0.25,0.46875,0],"type":"VEC3"},{"bufferView":9,"componentType":5126,"count":8,"max":[0,0,-1],"min":[0,0,-1],"type":"VEC3"},{"bufferView":10,"componentType":5126,"count":8,"max":[0.375,0.5],"min":[0,0],"type":"VEC2"},{"bufferView":11,"componentType":5123,"count":12,"max":[7],"min":[0],"type":"SCALAR"},{"bufferView":12,"componentType":5126,"count":4,"max":[-0.015625,0.34375,-0.015625],"min":[-0.078125,0.3125,-0.015625],"type":"VEC3"},{"bufferView":13,"componentType":5126,"count":4,"max":[0,0,-1],"min":[0,0,-1],"type":"VEC3"},{"bufferView":14,"componentType":5126,"count":4,"max":[0.125,0.125],"min":[0,0],"type":"VEC2"},{"bufferView":15,"componentType":5123,"count":6,"max":[3],"min":[0],"type":"SCALAR"},{"bufferView":16,"componentType":5126,"count":4,"max":[-0.078125,0.375,-0.015625],"min":[-0.109375,0.34375,-0.015625],"type":"VEC3"},{"bufferView":17,"componentType":5126,"count":4,"max":[0,0,-1],"min":[0,0,-1],"type":"VEC3"},{"bufferView":18,"componentType":5126,"count":4,"max":[0.125,0.125],"min":[0,0],"type":"VEC2"},{"bufferView":19,"componentType":5123,"count":6,"max":[3],"min":[0],"type":"SCALAR"},{"bufferView":20,"componentType":5126,"count":4,"max":[0.015625,0.375,-0.015625],"min":[-0.015625,0.34375,-0.015625],"type":"VEC3"},{"bufferView":21,"componentType":5126,"count":4,"max":[0,0,-1],"min":[0,0,-1],"type":"VEC3"},{"bufferView":22,"componentType":5126,"count":4,"max":[0.125,0.125],"min":[0,0],"type":"VEC2"},{"bufferView":23,"componentType":5123,"count":6,"max":[3],"min":[0],"type":"SCALAR"}],"materials":[{"pbrMetallicRoughness":{"metallicFactor":0,"roughnessFactor":1,"baseColorTexture":{"index":0}},"alphaMode":"MASK","alphaCutoff":0.05,"doubleSided":true},{"pbrMetallicRoughness":{"metallicFactor":0,"roughnessFactor":1,"baseColorTexture":{"index":1}},"alphaMode":"MASK","alphaCutoff":0.05,"doubleSided":true},{"pbrMetallicRoughness":{"metallicFactor":0,"roughnessFactor":1,"baseColorTexture":{"index":2}},"alphaMode":"MASK","alphaCutoff":0.05,"doubleSided":true},{"pbrMetallicRoughness":{"metallicFactor":0,"roughnessFactor":1,"baseColorTexture":{"index":3}},"alphaMode":"MASK","alphaCutoff":0.05,"doubleSided":true},{"pbrMetallicRoughness":{"metallicFactor":0,"roughnessFactor":1,"baseColorTexture":{"index":4}},"alphaMode":"MASK","alphaCutoff":0.05,"doubleSided":true},{"pbrMetallicRoughness":{"metallicFactor":0,"roughnessFactor":1,"baseColorTexture":{"index":5}},"alphaMode":"MASK","alphaCutoff":0.05,"doubleSided":true}],"textures":[{"sampler":0,"source":0},{"sampler":1,"source":1},{"sampler":2,"source":2},{"sampler":3,"source":3},{"sampler":4,"source":4},{"sampler":5,"source":5}],"samplers":[{"magFilter":9728,"minFilter":9728,"wrapS":33071,"wrapT":33071},{"magFilter":9728,"minFilter":9728,"wrapS":33071,"wrapT":33071},{"magFilter":9728,"minFilter":9728,"wrapS":33071,"wrapT":33071},{"magFilter":9728,"minFilter":9728,"wrapS":33071,"wrapT":33071},{"magFilter":9728,"minFilter":9728,"wrapS":33071,"wrapT":33071},{"magFilter":9728,"minFilter":9728,"wrapS":33071,"wrapT":33071}],"images":[{"mimeType":"image/png","uri":"data:image/png;base64,"},{"mimeType":"image/png","uri":"data:image/png;base64,"},{"mimeType":"image/png","uri":"data:image/png;base64,"},{"mimeType":"image/png","uri":"data:image/png;base64,"},{"mimeType":"image/png","uri":"data:image/png;base64,"},{"mimeType":"image/png","uri":"data:image/png;base64,"}],"meshes":[{"primitives":[{"mode":4,"attributes":{"POSITION":0,"NORMAL":1,"TEXCOORD_0":2},"indices":3,"material":0}]},{"primitives":[{"mode":4,"attributes":{"POSITION":4,"NORMAL":5,"TEXCOORD_0":6},"indices":7,"material":1}]},{"primitives":[{"mode":4,"attributes":{"POSITION":8,"NORMAL":9,"TEXCOORD_0":10},"indices":11,"material":2}]},{"primitives":[{"mode":4,"attributes":{"POSITION":12,"NORMAL":13,"TEXCOORD_0":14},"indices":15,"material":3}]},{"primitives":[{"mode":4,"attributes":{"POSITION":16,"NORMAL":17,"TEXCOORD_0":18},"indices":19,"material":4}]},{"primitives":[{"mode":4,"attributes":{"POSITION":20,"NORMAL":21,"TEXCOORD_0":22},"indices":23,"material":5}]}]}